<svg height="802pt" viewBox="0.00 0.00 346.00 802.00" width="346pt" xmlns="http://www.w3.org/2000/svg" xmlns:xlink="http://www.w3.org/1999/xlink">
<g class="graph" id="graph0" transform="scale(1 1) rotate(0) translate(4 798)">
<title>G</title>
<polygon fill="#ffffff" points="-4,4 -4,-798 342,-798 342,4 -4,4" stroke="transparent"/>
<!-- 140207659988880 -->
<g class="node" id="node1">
<title>140207659988880</title>
<polygon fill="none" points="37,-747.5 37,-793.5 301,-793.5 301,-747.5 37,-747.5" stroke="#000000"/>
<text fill="#000000" font-family="Times,serif" font-size="14.00" text-anchor="middle" x="75.5" y="-766.8">InputLayer</text>
<polyline fill="none" points="114,-747.5 114,-793.5 " stroke="#000000"/>
<text fill="#000000" font-family="Times,serif" font-size="14.00" text-anchor="middle" x="141.5" y="-778.3">input:</text>
<polyline fill="none" points="114,-770.5 169,-770.5 " stroke="#000000"/>
<text fill="#000000" font-family="Times,serif" font-size="14.00" text-anchor="middle" x="141.5" y="-755.3">output:</text>
<polyline fill="none" points="169,-747.5 169,-793.5 " stroke="#000000"/>
<text fill="#000000" font-family="Times,serif" font-size="14.00" text-anchor="middle" x="235" y="-778.3">(None, 35, 20, 20, 1)</text>
<polyline fill="none" points="169,-770.5 301,-770.5 " stroke="#000000"/>
<text fill="#000000" font-family="Times,serif" font-size="14.00" text-anchor="middle" x="235" y="-755.3">(None, 35, 20, 20, 1)</text>
</g>
<!-- 140207659988752 -->
<g class="node" id="node2">
<title>140207659988752</title>
<polygon fill="none" points="44.5,-664.5 44.5,-710.5 293.5,-710.5 293.5,-664.5 44.5,-664.5" stroke="#000000"/>
<text fill="#000000" font-family="Times,serif" font-size="14.00" text-anchor="middle" x="75.5" y="-683.8">Conv3D</text>
<polyline fill="none" points="106.5,-664.5 106.5,-710.5 " stroke="#000000"/>
<text fill="#000000" font-family="Times,serif" font-size="14.00" text-anchor="middle" x="134" y="-695.3">input:</text>
<polyline fill="none" points="106.5,-687.5 161.5,-687.5 " stroke="#000000"/>
<text fill="#000000" font-family="Times,serif" font-size="14.00" text-anchor="middle" x="134" y="-672.3">output:</text>
<polyline fill="none" points="161.5,-664.5 161.5,-710.5 " stroke="#000000"/>
<text fill="#000000" font-family="Times,serif" font-size="14.00" text-anchor="middle" x="227.5" y="-695.3">(None, 35, 20, 20, 1)</text>
<polyline fill="none" points="161.5,-687.5 293.5,-687.5 " stroke="#000000"/>
<text fill="#000000" font-family="Times,serif" font-size="14.00" text-anchor="middle" x="227.5" y="-672.3">(None, 6, 9, 9, 16)</text>
</g>
<!-- 140207659988880&#45;&gt;140207659988752 -->
<g class="edge" id="edge1">
<title>140207659988880-&gt;140207659988752</title>
<path d="M169,-747.3799C169,-739.1745 169,-729.7679 169,-720.8786" fill="none" stroke="#000000"/>
<polygon fill="#000000" points="172.5001,-720.784 169,-710.784 165.5001,-720.784 172.5001,-720.784" stroke="#000000"/>
</g>
<!-- 140207659988816 -->
<g class="node" id="node3">
<title>140207659988816</title>
<polygon fill="none" points="31.5,-581.5 31.5,-627.5 306.5,-627.5 306.5,-581.5 31.5,-581.5" stroke="#000000"/>
<text fill="#000000" font-family="Times,serif" font-size="14.00" text-anchor="middle" x="82" y="-600.8">MaxPooling3D</text>
<polyline fill="none" points="132.5,-581.5 132.5,-627.5 " stroke="#000000"/>
<text fill="#000000" font-family="Times,serif" font-size="14.00" text-anchor="middle" x="160" y="-612.3">input:</text>
<polyline fill="none" points="132.5,-604.5 187.5,-604.5 " stroke="#000000"/>
<text fill="#000000" font-family="Times,serif" font-size="14.00" text-anchor="middle" x="160" y="-589.3">output:</text>
<polyline fill="none" points="187.5,-581.5 187.5,-627.5 " stroke="#000000"/>
<text fill="#000000" font-family="Times,serif" font-size="14.00" text-anchor="middle" x="247" y="-612.3">(None, 6, 9, 9, 16)</text>
<polyline fill="none" points="187.5,-604.5 306.5,-604.5 " stroke="#000000"/>
<text fill="#000000" font-family="Times,serif" font-size="14.00" text-anchor="middle" x="247" y="-589.3">(None, 6, 5, 5, 16)</text>
</g>
<!-- 140207659988752&#45;&gt;140207659988816 -->
<g class="edge" id="edge2">
<title>140207659988752-&gt;140207659988816</title>
<path d="M169,-664.3799C169,-656.1745 169,-646.7679 169,-637.8786" fill="none" stroke="#000000"/>
<polygon fill="#000000" points="172.5001,-637.784 169,-627.784 165.5001,-637.784 172.5001,-637.784" stroke="#000000"/>
</g>
<!-- 140207659988432 -->
<g class="node" id="node4">
<title>140207659988432</title>
<polygon fill="none" points="51,-498.5 51,-544.5 287,-544.5 287,-498.5 51,-498.5" stroke="#000000"/>
<text fill="#000000" font-family="Times,serif" font-size="14.00" text-anchor="middle" x="82" y="-517.8">Conv3D</text>
<polyline fill="none" points="113,-498.5 113,-544.5 " stroke="#000000"/>
<text fill="#000000" font-family="Times,serif" font-size="14.00" text-anchor="middle" x="140.5" y="-529.3">input:</text>
<polyline fill="none" points="113,-521.5 168,-521.5 " stroke="#000000"/>
<text fill="#000000" font-family="Times,serif" font-size="14.00" text-anchor="middle" x="140.5" y="-506.3">output:</text>
<polyline fill="none" points="168,-498.5 168,-544.5 " stroke="#000000"/>
<text fill="#000000" font-family="Times,serif" font-size="14.00" text-anchor="middle" x="227.5" y="-529.3">(None, 6, 5, 5, 16)</text>
<polyline fill="none" points="168,-521.5 287,-521.5 " stroke="#000000"/>
<text fill="#000000" font-family="Times,serif" font-size="14.00" text-anchor="middle" x="227.5" y="-506.3">(None, 1, 3, 3, 64)</text>
</g>
<!-- 140207659988816&#45;&gt;140207659988432 -->
<g class="edge" id="edge3">
<title>140207659988816-&gt;140207659988432</title>
<path d="M169,-581.3799C169,-573.1745 169,-563.7679 169,-554.8786" fill="none" stroke="#000000"/>
<polygon fill="#000000" points="172.5001,-554.784 169,-544.784 165.5001,-554.784 172.5001,-554.784" stroke="#000000"/>
</g>
<!-- 140207659989648 -->
<g class="node" id="node5">
<title>140207659989648</title>
<polygon fill="none" points="31.5,-415.5 31.5,-461.5 306.5,-461.5 306.5,-415.5 31.5,-415.5" stroke="#000000"/>
<text fill="#000000" font-family="Times,serif" font-size="14.00" text-anchor="middle" x="82" y="-434.8">MaxPooling3D</text>
<polyline fill="none" points="132.5,-415.5 132.5,-461.5 " stroke="#000000"/>
<text fill="#000000" font-family="Times,serif" font-size="14.00" text-anchor="middle" x="160" y="-446.3">input:</text>
<polyline fill="none" points="132.5,-438.5 187.5,-438.5 " stroke="#000000"/>
<text fill="#000000" font-family="Times,serif" font-size="14.00" text-anchor="middle" x="160" y="-423.3">output:</text>
<polyline fill="none" points="187.5,-415.5 187.5,-461.5 " stroke="#000000"/>
<text fill="#000000" font-family="Times,serif" font-size="14.00" text-anchor="middle" x="247" y="-446.3">(None, 1, 3, 3, 64)</text>
<polyline fill="none" points="187.5,-438.5 306.5,-438.5 " stroke="#000000"/>
<text fill="#000000" font-family="Times,serif" font-size="14.00" text-anchor="middle" x="247" y="-423.3">(None, 1, 2, 2, 64)</text>
</g>
<!-- 140207659988432&#45;&gt;140207659989648 -->
<g class="edge" id="edge4">
<title>140207659988432-&gt;140207659989648</title>
<path d="M169,-498.3799C169,-490.1745 169,-480.7679 169,-471.8786" fill="none" stroke="#000000"/>
<polygon fill="#000000" points="172.5001,-471.784 169,-461.784 165.5001,-471.784 172.5001,-471.784" stroke="#000000"/>
</g>
<!-- 140207659989072 -->
<g class="node" id="node6">
<title>140207659989072</title>
<polygon fill="none" points="48,-332.5 48,-378.5 290,-378.5 290,-332.5 48,-332.5" stroke="#000000"/>
<text fill="#000000" font-family="Times,serif" font-size="14.00" text-anchor="middle" x="79" y="-351.8">Conv3D</text>
<polyline fill="none" points="110,-332.5 110,-378.5 " stroke="#000000"/>
<text fill="#000000" font-family="Times,serif" font-size="14.00" text-anchor="middle" x="137.5" y="-363.3">input:</text>
<polyline fill="none" points="110,-355.5 165,-355.5 " stroke="#000000"/>
<text fill="#000000" font-family="Times,serif" font-size="14.00" text-anchor="middle" x="137.5" y="-340.3">output:</text>
<polyline fill="none" points="165,-332.5 165,-378.5 " stroke="#000000"/>
<text fill="#000000" font-family="Times,serif" font-size="14.00" text-anchor="middle" x="227.5" y="-363.3">(None, 1, 2, 2, 64)</text>
<polyline fill="none" points="165,-355.5 290,-355.5 " stroke="#000000"/>
<text fill="#000000" font-family="Times,serif" font-size="14.00" text-anchor="middle" x="227.5" y="-340.3">(None, 1, 2, 2, 256)</text>
</g>
<!-- 140207659989648&#45;&gt;140207659989072 -->
<g class="edge" id="edge5">
<title>140207659989648-&gt;140207659989072</title>
<path d="M169,-415.3799C169,-407.1745 169,-397.7679 169,-388.8786" fill="none" stroke="#000000"/>
<polygon fill="#000000" points="172.5001,-388.784 169,-378.784 165.5001,-388.784 172.5001,-388.784" stroke="#000000"/>
</g>
<!-- 140207659863056 -->
<g class="node" id="node7">
<title>140207659863056</title>
<polygon fill="none" points="28.5,-249.5 28.5,-295.5 309.5,-295.5 309.5,-249.5 28.5,-249.5" stroke="#000000"/>
<text fill="#000000" font-family="Times,serif" font-size="14.00" text-anchor="middle" x="79" y="-268.8">MaxPooling3D</text>
<polyline fill="none" points="129.5,-249.5 129.5,-295.5 " stroke="#000000"/>
<text fill="#000000" font-family="Times,serif" font-size="14.00" text-anchor="middle" x="157" y="-280.3">input:</text>
<polyline fill="none" points="129.5,-272.5 184.5,-272.5 " stroke="#000000"/>
<text fill="#000000" font-family="Times,serif" font-size="14.00" text-anchor="middle" x="157" y="-257.3">output:</text>
<polyline fill="none" points="184.5,-249.5 184.5,-295.5 " stroke="#000000"/>
<text fill="#000000" font-family="Times,serif" font-size="14.00" text-anchor="middle" x="247" y="-280.3">(None, 1, 2, 2, 256)</text>
<polyline fill="none" points="184.5,-272.5 309.5,-272.5 " stroke="#000000"/>
<text fill="#000000" font-family="Times,serif" font-size="14.00" text-anchor="middle" x="247" y="-257.3">(None, 1, 1, 1, 256)</text>
</g>
<!-- 140207659989072&#45;&gt;140207659863056 -->
<g class="edge" id="edge6">
<title>140207659989072-&gt;140207659863056</title>
<path d="M169,-332.3799C169,-324.1745 169,-314.7679 169,-305.8786" fill="none" stroke="#000000"/>
<polygon fill="#000000" points="172.5001,-305.784 169,-295.784 165.5001,-305.784 172.5001,-305.784" stroke="#000000"/>
</g>
<!-- 140207658758096 -->
<g class="node" id="node8">
<title>140207658758096</title>
<polygon fill="none" points="0,-166.5 0,-212.5 338,-212.5 338,-166.5 0,-166.5" stroke="#000000"/>
<text fill="#000000" font-family="Times,serif" font-size="14.00" text-anchor="middle" x="79" y="-185.8">GlobalAveragePooling3D</text>
<polyline fill="none" points="158,-166.5 158,-212.5 " stroke="#000000"/>
<text fill="#000000" font-family="Times,serif" font-size="14.00" text-anchor="middle" x="185.5" y="-197.3">input:</text>
<polyline fill="none" points="158,-189.5 213,-189.5 " stroke="#000000"/>
<text fill="#000000" font-family="Times,serif" font-size="14.00" text-anchor="middle" x="185.5" y="-174.3">output:</text>
<polyline fill="none" points="213,-166.5 213,-212.5 " stroke="#000000"/>
<text fill="#000000" font-family="Times,serif" font-size="14.00" text-anchor="middle" x="275.5" y="-197.3">(None, 1, 1, 1, 256)</text>
<polyline fill="none" points="213,-189.5 338,-189.5 " stroke="#000000"/>
<text fill="#000000" font-family="Times,serif" font-size="14.00" text-anchor="middle" x="275.5" y="-174.3">(None, 256)</text>
</g>
<!-- 140207659863056&#45;&gt;140207658758096 -->
<g class="edge" id="edge7">
<title>140207659863056-&gt;140207658758096</title>
<path d="M169,-249.3799C169,-241.1745 169,-231.7679 169,-222.8786" fill="none" stroke="#000000"/>
<polygon fill="#000000" points="172.5001,-222.784 169,-212.784 165.5001,-222.784 172.5001,-222.784" stroke="#000000"/>
</g>
<!-- 140205232766416 -->
<g class="node" id="node9">
<title>140205232766416</title>
<polygon fill="none" points="75,-83.5 75,-129.5 263,-129.5 263,-83.5 75,-83.5" stroke="#000000"/>
<text fill="#000000" font-family="Times,serif" font-size="14.00" text-anchor="middle" x="100" y="-102.8">Dense</text>
<polyline fill="none" points="125,-83.5 125,-129.5 " stroke="#000000"/>
<text fill="#000000" font-family="Times,serif" font-size="14.00" text-anchor="middle" x="152.5" y="-114.3">input:</text>
<polyline fill="none" points="125,-106.5 180,-106.5 " stroke="#000000"/>
<text fill="#000000" font-family="Times,serif" font-size="14.00" text-anchor="middle" x="152.5" y="-91.3">output:</text>
<polyline fill="none" points="180,-83.5 180,-129.5 " stroke="#000000"/>
<text fill="#000000" font-family="Times,serif" font-size="14.00" text-anchor="middle" x="221.5" y="-114.3">(None, 256)</text>
<polyline fill="none" points="180,-106.5 263,-106.5 " stroke="#000000"/>
<text fill="#000000" font-family="Times,serif" font-size="14.00" text-anchor="middle" x="221.5" y="-91.3">(None, 32)</text>
</g>
<!-- 140207658758096&#45;&gt;140205232766416 -->
<g class="edge" id="edge8">
<title>140207658758096-&gt;140205232766416</title>
<path d="M169,-166.3799C169,-158.1745 169,-148.7679 169,-139.8786" fill="none" stroke="#000000"/>
<polygon fill="#000000" points="172.5001,-139.784 169,-129.784 165.5001,-139.784 172.5001,-139.784" stroke="#000000"/>
</g>
<!-- 140207659725328 -->
<g class="node" id="node10">
<title>140207659725328</title>
<polygon fill="none" points="78.5,-.5 78.5,-46.5 259.5,-46.5 259.5,-.5 78.5,-.5" stroke="#000000"/>
<text fill="#000000" font-family="Times,serif" font-size="14.00" text-anchor="middle" x="103.5" y="-19.8">Dense</text>
<polyline fill="none" points="128.5,-.5 128.5,-46.5 " stroke="#000000"/>
<text fill="#000000" font-family="Times,serif" font-size="14.00" text-anchor="middle" x="156" y="-31.3">input:</text>
<polyline fill="none" points="128.5,-23.5 183.5,-23.5 " stroke="#000000"/>
<text fill="#000000" font-family="Times,serif" font-size="14.00" text-anchor="middle" x="156" y="-8.3">output:</text>
<polyline fill="none" points="183.5,-.5 183.5,-46.5 " stroke="#000000"/>
<text fill="#000000" font-family="Times,serif" font-size="14.00" text-anchor="middle" x="221.5" y="-31.3">(None, 32)</text>
<polyline fill="none" points="183.5,-23.5 259.5,-23.5 " stroke="#000000"/>
<text fill="#000000" font-family="Times,serif" font-size="14.00" text-anchor="middle" x="221.5" y="-8.3">(None, 6)</text>
</g>
<!-- 140205232766416&#45;&gt;140207659725328 -->
<g class="edge" id="edge9">
<title>140205232766416-&gt;140207659725328</title>
<path d="M169,-83.3799C169,-75.1745 169,-65.7679 169,-56.8786" fill="none" stroke="#000000"/>
<polygon fill="#000000" points="172.5001,-56.784 169,-46.784 165.5001,-56.784 172.5001,-56.784" stroke="#000000"/>
</g>
</g>
</svg>